<svg width="23" height="27" viewBox="0 0 23 27" fill="none" xmlns="http://www.w3.org/2000/svg">
<path d="M17.9755 7.3141C18.6064 7.54445 18.8837 8.09982 19.1627 8.6789C19.2071 8.84567 19.2491 9.01308 19.2893 9.18089C19.366 9.40137 19.4454 9.62094 19.5267 9.83976C19.5889 10.0077 19.5889 10.0077 19.6524 10.179C19.7292 10.3838 19.8071 10.5883 19.8912 10.7903C20.1487 11.4234 20.2745 12.0255 20.3498 12.7027C20.3702 12.8465 20.3702 12.8465 20.3909 12.9931C20.4793 13.7577 20.3595 14.2927 19.8829 14.9224C19.4686 15.2266 19.0163 15.4205 18.5295 15.5813C18.5295 15.6641 18.5295 15.747 18.5295 15.8323C18.4437 15.8598 18.3578 15.8873 18.2693 15.9156C17.5003 16.1753 16.8458 16.4914 16.1607 16.9221C15.8932 17.0743 15.669 17.1628 15.3717 17.2363C14.9572 17.3453 14.8897 17.4259 14.604 17.7148C14.3865 17.8382 14.3865 17.8382 14.1514 17.9437C14.0669 17.9821 13.9824 18.0205 13.8954 18.0601C13.7643 18.1182 13.7643 18.1182 13.6305 18.1775C13.5416 18.2177 13.4528 18.2579 13.3612 18.2994C13.1427 18.3981 12.9236 18.4958 12.7045 18.5933C12.8369 18.5724 12.9693 18.5515 13.1057 18.53C13.6103 18.4653 14.0803 18.4686 14.5867 18.4879C14.8848 18.495 14.8848 18.495 15.1105 18.2168C15.4059 18.2113 15.7015 18.2117 15.9969 18.2168C16.0751 18.1973 16.1533 18.1779 16.2339 18.1579C16.5648 18.0761 16.8834 18.058 17.2237 18.0364C17.9998 17.9767 18.7229 17.8289 19.4743 17.6339C20.2436 17.4521 20.8137 17.4798 21.5686 17.7148C21.5686 17.839 21.5686 17.9633 21.5686 18.0913C21.6522 18.0913 21.7358 18.0913 21.8219 18.0913C21.9291 18.2654 22.0342 18.4409 22.1385 18.6168C22.1972 18.7143 22.256 18.8119 22.3166 18.9124C22.4691 19.2519 22.4704 19.4814 22.4551 19.8482C22.4968 19.8897 22.5386 19.9311 22.5817 19.9737C22.5765 20.0695 22.5712 20.1653 22.5659 20.2639C22.5468 20.6064 22.5468 20.6064 22.7706 20.8184C23.0365 21.2149 23.0033 21.5102 22.9932 21.9817C22.9913 22.1344 22.9893 22.2871 22.9873 22.4445C22.9668 22.7757 22.9181 23.0449 22.8349 23.3622C22.8767 23.4036 22.9185 23.445 22.9616 23.4877C23.0097 23.9167 23.0287 24.1514 22.7637 24.5039C22.373 24.8061 22.0066 24.8749 21.5291 24.9466C21.3963 24.9689 21.3963 24.9689 21.2608 24.9916C20.4925 25.1177 19.7206 25.2207 18.948 25.3162C18.2445 25.3489 18.2445 25.3489 17.6431 25.6212C17.1186 25.7104 16.5887 25.7639 16.0602 25.8251C15.9133 25.8435 15.7664 25.862 15.6151 25.881C14.7812 25.9782 14.0408 26.0039 13.2111 25.8722C13.2111 25.955 13.2111 26.0378 13.2111 26.1231C12.7834 26.3142 12.4752 26.3988 12.0081 26.3741C11.3234 26.3606 10.6616 26.4201 9.982 26.4918C8.90428 26.5998 7.82706 26.6763 6.74503 26.7271C6.60513 26.7353 6.46524 26.7434 6.32111 26.7518C5.3763 26.7907 4.13655 26.8202 3.36509 26.1938C3.13628 25.9094 3.01918 25.605 2.88281 25.2682C2.83041 25.1405 2.77801 25.0129 2.72403 24.8814C2.35669 23.9262 2.35669 23.9262 2.26549 23.4485C2.24198 23.3786 2.21848 23.3087 2.19426 23.2367C2.00621 23.1746 2.00621 23.1746 1.81437 23.1112C1.67983 22.7773 1.67983 22.7773 1.56111 22.3504C1.35798 21.6448 1.35798 21.6448 1.10999 20.9542C0.88771 20.3867 0.718624 19.8052 0.54807 19.2207C0.501059 19.0629 0.454048 18.905 0.405612 18.7423C0.310985 18.4007 0.23821 18.0618 0.16818 17.7148C0.126393 17.6319 0.0846047 17.5491 0.0415505 17.4638C-0.0138502 17.0402 -0.0138502 17.0402 0.0415505 16.5853C0.436707 16.2459 0.653521 16.0833 1.18122 16.0833C1.19363 16.0073 1.20603 15.9312 1.21881 15.8529C1.37216 15.3851 1.78233 15.196 2.19426 14.9538C2.40464 14.8685 2.61556 14.7845 2.82741 14.7028C2.88095 14.646 2.93449 14.5892 2.98965 14.5307C3.27562 14.2621 3.58047 14.126 3.93542 13.9577C4.97371 13.5421 4.97371 13.5421 5.7399 12.8203C5.88485 12.832 5.88485 12.832 6.03273 12.8439C6.44647 12.8153 6.4763 12.729 6.75294 12.4438C7.00398 12.3539 7.25745 12.2703 7.51272 12.1928C7.91487 12.033 7.91487 12.033 8.14587 11.6909C8.27123 11.6909 8.3966 11.6909 8.52576 11.6909C8.58844 11.5666 8.58844 11.5666 8.65239 11.4399C8.9468 11.3912 9.24248 11.3498 9.5388 11.3144C9.66416 11.2729 9.78953 11.2315 9.91869 11.1889C9.97745 11.0646 9.97745 11.0646 10.0374 10.9379C10.0818 10.855 10.1262 10.7722 10.1719 10.6869C10.3396 10.6407 10.5087 10.5995 10.6785 10.5614C10.8415 10.4874 11.0025 10.4087 11.1612 10.3261C11.4919 10.1567 11.8122 10.0107 12.1585 9.87113C12.5717 9.68568 12.864 9.46587 13.2111 9.18089C13.2946 9.18089 13.3782 9.18089 13.4643 9.18089C13.4643 9.09806 13.4643 9.01523 13.4643 8.92989C13.6315 8.92989 13.7986 8.92989 13.9708 8.92989C14.057 8.84448 14.057 8.84448 14.145 8.75733C14.4299 8.4749 14.728 8.41299 15.1105 8.3024C15.2359 8.26099 15.3612 8.21957 15.4904 8.1769C15.5792 8.15879 15.668 8.14067 15.7595 8.122C15.8378 8.0987 15.9162 8.07541 15.9969 8.05141C16.0387 7.96858 16.0805 7.88575 16.1236 7.80041C16.2594 7.78229 16.3952 7.76417 16.5351 7.7455C17.0064 7.70708 17.0064 7.70708 17.3424 7.47098C17.6431 7.29842 17.6431 7.29842 17.9755 7.3141Z" fill="#C32529"/>
<path d="M17.9755 7.3141C18.6064 7.54445 18.8837 8.09982 19.1627 8.6789C19.2071 8.84567 19.2491 9.01308 19.2893 9.18089C19.366 9.40137 19.4454 9.62094 19.5267 9.83976C19.5889 10.0077 19.5889 10.0077 19.6524 10.179C19.7292 10.3838 19.8071 10.5883 19.8912 10.7903C20.1487 11.4234 20.2745 12.0255 20.3498 12.7027C20.3702 12.8465 20.3702 12.8465 20.3909 12.9931C20.4793 13.7577 20.3595 14.2927 19.8829 14.9224C19.4686 15.2266 19.0163 15.4205 18.5295 15.5813C18.5295 15.6641 18.5295 15.747 18.5295 15.8323C18.4437 15.8598 18.3578 15.8873 18.2693 15.9156C17.5003 16.1753 16.8458 16.4914 16.1607 16.9221C15.8932 17.0743 15.669 17.1628 15.3717 17.2363C14.9572 17.3453 14.8897 17.4259 14.604 17.7148C14.3865 17.8382 14.3865 17.8382 14.1514 17.9437C14.0669 17.9821 13.9824 18.0205 13.8954 18.0601C13.7643 18.1182 13.7643 18.1182 13.6305 18.1775C13.5416 18.2177 13.4528 18.2579 13.3612 18.2994C13.1427 18.3981 12.9236 18.4958 12.7045 18.5933C12.8369 18.5724 12.9693 18.5515 13.1057 18.53C13.6103 18.4653 14.0803 18.4686 14.5867 18.4879C14.8848 18.495 14.8848 18.495 15.1105 18.2168C15.4059 18.2113 15.7015 18.2117 15.9969 18.2168C16.0751 18.1973 16.1533 18.1779 16.2339 18.1579C16.5648 18.0761 16.8834 18.058 17.2237 18.0364C17.9998 17.9767 18.7229 17.8289 19.4743 17.6339C20.2436 17.4521 20.8137 17.4798 21.5686 17.7148C21.5686 17.839 21.5686 17.9633 21.5686 18.0913C21.6522 18.0913 21.7358 18.0913 21.8219 18.0913C21.9291 18.2654 22.0342 18.4409 22.1385 18.6168C22.1972 18.7143 22.256 18.8119 22.3166 18.9124C22.4691 19.2519 22.4704 19.4814 22.4551 19.8482C22.4968 19.8897 22.5386 19.9311 22.5817 19.9737C22.5765 20.0695 22.5712 20.1653 22.5659 20.2639C22.5468 20.6064 22.5468 20.6064 22.7706 20.8184C23.0365 21.2149 23.0033 21.5102 22.9932 21.9817C22.9913 22.1344 22.9893 22.2871 22.9873 22.4445C22.9668 22.7757 22.9181 23.0449 22.8349 23.3622C22.8767 23.4036 22.9185 23.445 22.9616 23.4877C23.0097 23.9167 23.0287 24.1514 22.7637 24.5039C22.373 24.8061 22.0066 24.8749 21.5291 24.9466C21.3963 24.9689 21.3963 24.9689 21.2608 24.9916C20.4925 25.1177 19.7206 25.2207 18.948 25.3162C18.2445 25.3489 18.2445 25.3489 17.6431 25.6212C17.1186 25.7104 16.5887 25.7639 16.0602 25.8251C15.9133 25.8435 15.7664 25.862 15.6151 25.881C14.7812 25.9782 14.0408 26.0039 13.2111 25.8722C13.2111 25.955 13.2111 26.0378 13.2111 26.1231C12.7834 26.3142 12.4752 26.3988 12.0081 26.3741C11.3234 26.3606 10.6616 26.4201 9.982 26.4918C8.90428 26.5998 7.82706 26.6763 6.74503 26.7271C6.60513 26.7353 6.46524 26.7434 6.32111 26.7518C5.3763 26.7907 4.13655 26.8202 3.36509 26.1938C3.13628 25.9094 3.01918 25.605 2.88281 25.2682C2.83041 25.1405 2.77801 25.0129 2.72403 24.8814C2.35669 23.9262 2.35669 23.9262 2.26549 23.4485C2.24198 23.3786 2.21848 23.3087 2.19426 23.2367C2.00621 23.1746 2.00621 23.1746 1.81437 23.1112C1.67983 22.7773 1.67983 22.7773 1.56111 22.3504C1.35798 21.6448 1.35798 21.6448 1.10999 20.9542C0.88771 20.3867 0.718624 19.8052 0.54807 19.2207C0.501059 19.0629 0.454048 18.905 0.405612 18.7423C0.310985 18.4007 0.23821 18.0618 0.16818 17.7148C0.126393 17.6319 0.0846047 17.5491 0.0415505 17.4638C-0.0138502 17.0402 -0.0138502 17.0402 0.0415505 16.5853C0.436707 16.2459 0.653521 16.0833 1.18122 16.0833C1.19363 16.0073 1.20603 15.9312 1.21881 15.8529C1.37216 15.3851 1.78233 15.196 2.19426 14.9538C2.40464 14.8685 2.61556 14.7845 2.82741 14.7028C2.88095 14.646 2.93449 14.5892 2.98965 14.5307C3.27562 14.2621 3.58047 14.126 3.93542 13.9577C4.97371 13.5421 4.97371 13.5421 5.7399 12.8203C5.88485 12.832 5.88485 12.832 6.03273 12.8439C6.44647 12.8153 6.4763 12.729 6.75294 12.4438C7.00398 12.3539 7.25745 12.2703 7.51272 12.1928C7.91487 12.033 7.91487 12.033 8.14587 11.6909C8.27123 11.6909 8.3966 11.6909 8.52576 11.6909C8.58844 11.5666 8.58844 11.5666 8.65239 11.4399C8.9468 11.3912 9.24248 11.3498 9.5388 11.3144C9.66416 11.2729 9.78953 11.2315 9.91869 11.1889C9.97745 11.0646 9.97745 11.0646 10.0374 10.9379C10.0818 10.855 10.1262 10.7722 10.1719 10.6869C10.3396 10.6407 10.5087 10.5995 10.6785 10.5614C10.8415 10.4874 11.0025 10.4087 11.1612 10.3261C11.4919 10.1567 11.8122 10.0107 12.1585 9.87113C12.5717 9.68568 12.864 9.46587 13.2111 9.18089C13.2946 9.18089 13.3782 9.18089 13.4643 9.18089C13.4643 9.09806 13.4643 9.01523 13.4643 8.92989C13.6315 8.92989 13.7986 8.92989 13.9708 8.92989C14.057 8.84448 14.057 8.84448 14.145 8.75733C14.4299 8.4749 14.728 8.41299 15.1105 8.3024C15.2359 8.26099 15.3612 8.21957 15.4904 8.1769C15.5792 8.15879 15.668 8.14067 15.7595 8.122C15.8378 8.0987 15.9162 8.07541 15.9969 8.05141C16.0387 7.96858 16.0805 7.88575 16.1236 7.80041C16.2594 7.78229 16.3952 7.76417 16.5351 7.7455C17.0064 7.70708 17.0064 7.70708 17.3424 7.47098C17.6431 7.29842 17.6431 7.29842 17.9755 7.3141ZM17.1366 9.05539C16.9916 9.14469 16.9916 9.14469 16.8438 9.2358C16.5034 9.43189 16.5034 9.43189 16.1236 9.55738C16.0713 9.61174 16.0191 9.6661 15.9653 9.7221C15.6399 10.0331 15.2506 10.2222 14.8573 10.4359C14.7649 10.4896 14.6725 10.5433 14.5773 10.5986C14.1343 10.8534 13.7255 11.0795 13.2269 11.2045C12.8202 11.3174 12.7241 11.3959 12.4513 11.6909C12.2427 11.7803 12.0312 11.8633 11.8181 11.9419C11.5639 12.0654 11.3104 12.1905 11.0584 12.3183C11.0584 12.4012 11.0584 12.484 11.0584 12.5693C10.982 12.5726 10.9056 12.5758 10.8269 12.5791C10.7257 12.5863 10.6245 12.5934 10.5202 12.6007C10.4203 12.6065 10.3204 12.6124 10.2175 12.6184C9.82976 12.7176 9.68818 12.9144 9.41217 13.1968C9.08026 13.3655 9.08026 13.3655 8.72362 13.5106C8.20808 13.7311 7.81504 13.9637 7.38609 14.3263C7.17587 14.412 6.96464 14.4953 6.75294 14.5773C5.57561 15.1112 5.57561 15.1112 4.48943 15.8009C4.02895 16.1295 3.6167 16.2827 3.08067 16.4598C3.08067 16.5426 3.08067 16.6254 3.08067 16.7108C2.7035 16.7475 2.7035 16.7475 2.32633 16.7843C2.02966 16.8271 2.02966 16.8271 1.68774 17.0873C2.23932 19.0789 2.23932 19.0789 3.07276 20.964C3.25932 21.3311 3.35842 21.7101 3.46056 22.1072C3.49941 22.2022 3.53826 22.2971 3.57829 22.395C3.78328 22.9088 3.92687 23.4395 4.08134 23.9701C4.21544 24.3522 4.37959 24.655 4.60023 24.9937C4.68646 25.1601 4.7716 25.3271 4.85349 25.4957C5.26859 25.4381 5.68257 25.3804 6.09506 25.3064C6.67368 25.2181 7.25297 25.1966 7.83721 25.1667C8.26893 25.1196 8.62413 25.0101 9.03228 24.8682C9.15764 24.8682 9.28301 24.8682 9.41217 24.8682C9.41217 24.7853 9.41217 24.7025 9.41217 24.6172C9.48269 24.6376 9.5532 24.6579 9.62586 24.6789C9.94304 24.748 10.2273 24.7593 10.5518 24.7584C10.6589 24.7587 10.766 24.759 10.8763 24.7593C11.1656 24.7437 11.4142 24.6973 11.6915 24.6172C11.6915 24.5343 11.6915 24.4515 11.6915 24.3662C11.7672 24.3869 11.843 24.4076 11.921 24.4289C12.2124 24.5057 12.2124 24.5057 12.5779 24.4917C12.668 24.4946 12.7581 24.4975 12.851 24.5005C12.9489 24.5028 13.0468 24.505 13.1478 24.5074C13.2457 24.5103 13.3436 24.5132 13.4445 24.5162C13.7554 24.51 13.7554 24.51 14.0975 24.2407C14.2855 24.3028 14.2855 24.3028 14.4774 24.3662C14.6027 24.2833 14.7281 24.2005 14.8573 24.1152C15.3964 24.0007 15.9438 23.953 16.4916 23.896C16.7682 23.867 16.7682 23.867 17.0812 23.7936C17.3899 23.7387 17.3899 23.7387 17.8568 23.7465C18.3583 23.753 18.8083 23.6663 19.2967 23.5602C20.0477 23.414 20.8096 23.331 21.5686 23.2367C21.5686 23.1539 21.5686 23.071 21.5686 22.9857C21.4851 22.9857 21.4015 22.9857 21.3154 22.9857C21.318 22.864 21.3206 22.7424 21.3233 22.617C21.3605 22.2484 21.3605 22.2484 21.1888 22.1072C21.1717 21.9036 21.1594 21.6995 21.1492 21.4954C21.0877 20.7207 20.855 20.0598 20.5556 19.3462C20.1937 19.2603 20.1937 19.2603 19.7958 19.2207C19.6705 19.3036 19.5451 19.3864 19.4159 19.4717C19.1504 19.5308 19.1504 19.5308 18.8471 19.5698C18.7369 19.5848 18.6267 19.5999 18.5132 19.6154C18.3985 19.6301 18.2837 19.6448 18.1655 19.66C17.1806 19.7754 17.1806 19.7754 16.2502 20.0992C16.2502 20.0164 16.2502 19.9336 16.2502 19.8482C14.7775 19.91 14.7775 19.91 13.3318 20.1737C12.9119 20.2603 12.4991 20.2318 12.0714 20.2247C11.9695 20.2454 11.8677 20.2661 11.7627 20.2875C11.4573 20.3465 11.2019 20.3544 10.8922 20.3502C10.515 20.3453 10.1575 20.3605 9.78414 20.413C8.43459 20.5828 8.43459 20.5828 7.89261 20.2247C7.89261 20.0591 7.89261 19.8934 7.89261 19.7227C7.97096 19.6917 8.04931 19.6606 8.13004 19.6286C8.41565 19.4982 8.41565 19.4982 8.49559 19.2399C8.72008 18.8531 9.01458 18.7228 9.40425 18.507C9.5386 18.4314 9.67294 18.3559 9.81135 18.278C10.1719 18.0913 10.1719 18.0913 10.5518 17.9658C10.5518 17.8829 10.5518 17.8001 10.5518 17.7148C10.6798 17.7018 10.8078 17.6889 10.9396 17.6755C11.4748 17.5829 11.8429 17.4562 12.3247 17.2128C12.45 17.0264 12.45 17.0264 12.5779 16.8363C12.872 16.7478 13.1675 16.6641 13.4643 16.5853C13.5897 16.461 13.5897 16.461 13.7176 16.3343C13.8534 16.3006 13.9892 16.267 14.1291 16.2323C14.5898 16.0878 14.8024 15.9291 15.1506 15.6102C15.4888 15.3652 15.8667 15.2791 16.2685 15.1764C16.346 15.1443 16.4236 15.1123 16.5034 15.0793C16.5452 14.9551 16.587 14.8308 16.6301 14.7028C16.7217 14.7088 16.8132 14.7148 16.9076 14.7209C17.3109 14.7004 17.5344 14.6005 17.8885 14.4126C17.9977 14.3557 18.1069 14.2987 18.2194 14.24C18.3217 14.1857 18.4241 14.1313 18.5295 14.0753C18.6822 13.9989 18.8352 13.923 18.9886 13.8479C19.0878 13.7987 19.1871 13.7495 19.2893 13.6988C19.1896 13.5155 19.0892 13.3326 18.9886 13.1498C18.9327 13.0479 18.8769 12.9459 18.8194 12.8409C18.6632 12.5558 18.6632 12.5558 18.4029 12.3183C18.3311 12.0511 18.269 11.7813 18.213 11.5105C18.1124 11.0258 18.0484 10.7246 17.7697 10.3104C17.7306 10.1654 17.6914 10.0205 17.651 9.87113C17.527 9.46608 17.4648 9.30672 17.1366 9.05539Z" fill="#020101"/>
<path d="M11.3974 0.231686C11.5409 0.231365 11.6843 0.231044 11.8322 0.230713C12.2465 0.246695 12.6359 0.297764 13.0429 0.371753C13.0429 0.453926 13.0429 0.536099 13.0429 0.620761C13.1638 0.633601 13.2848 0.646441 13.4094 0.659669C13.8445 0.749305 13.9358 0.813063 14.2159 1.11878C14.3449 1.15987 14.4739 1.20095 14.6069 1.24328C14.6069 1.32546 14.6069 1.40763 14.6069 1.49229C14.6929 1.49229 14.7789 1.49229 14.8675 1.49229C14.8675 1.57446 14.8675 1.65664 14.8675 1.7413C14.9536 1.7413 15.0396 1.7413 15.1282 1.7413C15.1542 1.84674 15.1542 1.84674 15.1806 1.95432C15.2878 2.34644 15.4295 2.72526 15.5686 3.10793C15.6496 3.35986 15.6496 3.35986 15.6496 3.60886C15.7356 3.60886 15.8216 3.60886 15.9102 3.60886C15.9615 5.01984 15.8975 5.91329 14.9979 7.09498C14.8699 7.22173 14.7403 7.34707 14.6069 7.4685C14.5424 7.59176 14.5424 7.59176 14.4765 7.71751C14.3905 7.71751 14.3045 7.71751 14.2159 7.71751C14.2159 7.79968 14.2159 7.88185 14.2159 7.96651C13.1901 8.5338 12.1425 8.61244 10.9819 8.62794C10.8393 8.63124 10.8393 8.63124 10.6939 8.6346C10.0991 8.63388 9.74566 8.54416 9.26314 8.21552C9.16099 8.18728 9.05884 8.15903 8.95359 8.12993C8.28753 7.81179 7.81331 7.23021 7.52805 6.5814C7.49848 6.46328 7.46891 6.34516 7.43845 6.22345C7.39275 6.09506 7.34705 5.96666 7.29997 5.83438C7.02739 5.03588 7.02739 5.03588 7.17778 4.6049C7.19659 4.49705 7.21541 4.38919 7.2348 4.27808C7.29396 3.939 7.35779 3.60308 7.4303 3.26648C7.45029 3.17211 7.47029 3.07774 7.49089 2.98051C7.56878 2.73733 7.56878 2.73733 7.82945 2.48833C7.8807 2.35319 7.93194 2.21805 7.98473 2.07882C8.22367 1.52605 8.61443 1.2705 9.12466 0.947585C9.20555 0.893178 9.28645 0.83877 9.3698 0.782714C10.0776 0.317551 10.5501 0.229799 11.3974 0.231686Z" fill="#020202"/>
<path d="M6.03044 5.41206C6.28692 5.69993 6.45825 5.98106 6.65791 6.31801C6.78259 6.44826 6.90807 6.5777 7.03439 6.70627C7.33006 7.16366 7.35041 7.45713 7.41087 8.00048C7.45357 8.25273 7.45357 8.25273 7.49714 8.51007C7.59448 9.33227 7.36567 10.0453 6.90889 10.7183C6.83586 10.8382 6.83586 10.8382 6.76134 10.9605C6.27702 11.7048 5.73513 12.2406 4.90101 12.5302C4.51859 12.5895 4.14231 12.6069 3.75589 12.6111C3.66154 12.6125 3.56718 12.6139 3.46997 12.6154C2.78974 12.5976 2.19137 12.4383 1.6382 12.0125C1.57608 11.8203 1.57608 11.8203 1.5127 11.6243C1.42988 11.6243 1.34705 11.6243 1.26172 11.6243C1.26172 11.5388 1.26172 11.4534 1.26172 11.3654C1.1501 11.3599 1.1501 11.3599 1.03622 11.3543C0.675662 11.2 0.598522 10.9842 0.447975 10.6248C0.416268 10.5435 0.384561 10.4623 0.351894 10.3786C0.28654 10.2221 0.221186 10.0656 0.153851 9.90438C-0.0751509 9.15651 -0.00965329 8.47598 0.100908 7.70928C0.118379 7.57782 0.13585 7.44635 0.153851 7.31091C0.278142 6.89734 0.421251 6.81442 0.759746 6.57685C0.861328 6.17539 0.861328 6.17539 0.885239 5.80032C1.0923 5.75762 1.29936 5.71491 1.5127 5.6709C1.5127 5.58549 1.5127 5.50007 1.5127 5.41206C1.90606 4.84588 2.57707 4.82588 3.19803 4.70227C4.26862 4.54282 5.13233 4.77619 6.03044 5.41206Z" fill="#020202"/>
<path d="M12.8359 2.0131C13.5494 2.51831 13.8436 3.18282 14.0725 4.06619C14.1917 4.67533 14.2016 5.04604 13.9541 5.62033C13.9321 5.82278 13.9321 5.82278 13.9096 6.02931C13.8167 6.50161 13.7213 6.65402 13.3617 6.92908C13.0443 7.00411 12.7387 7.03054 12.4138 7.05995C12.3747 7.10314 12.3356 7.14633 12.2953 7.19083C11.5803 7.30138 10.8702 7.3862 10.1626 7.19083C10.1626 7.10445 10.1626 7.01807 10.1626 6.92908C10.0453 6.92908 9.92805 6.92908 9.8072 6.92908C9.8072 6.8427 9.8072 6.75632 9.8072 6.66733C9.729 6.66733 9.6508 6.66733 9.57023 6.66733C9.57023 6.58095 9.57023 6.49457 9.57023 6.40558C9.49204 6.40558 9.41384 6.40558 9.33327 6.40558C9.33327 6.3192 9.33327 6.23282 9.33327 6.14383C9.21597 6.10064 9.09868 6.05745 8.97782 6.01295C8.77088 5.07416 8.77688 3.94577 9.22219 3.09281C9.29795 2.97674 9.3737 2.86067 9.45175 2.74109C9.52995 2.74109 9.60815 2.74109 9.68872 2.74109C9.72782 2.61152 9.76691 2.48195 9.8072 2.34846C10.8823 1.41342 11.6298 1.31526 12.8359 2.0131Z" fill="#FEFEFE"/>
<path d="M3.0641 6.42303C3.34273 6.44984 3.62046 6.48727 3.89735 6.5296C4.04946 6.55209 4.20156 6.57457 4.35828 6.59774C5.45788 6.81172 5.45788 6.81172 5.73374 7.19359C5.78843 7.33156 5.78843 7.33156 5.84422 7.47231C5.88229 7.56428 5.92035 7.65626 5.95957 7.75102C5.99089 7.83218 6.02221 7.91333 6.05448 7.99694C6.11616 8.12679 6.11616 8.12679 6.17908 8.25926C6.2348 8.99241 6.11535 9.57538 5.80528 10.2267C5.72305 10.3132 5.64081 10.3998 5.55609 10.489C5.43273 10.489 5.30938 10.489 5.18229 10.489C5.15145 10.5728 5.12061 10.6567 5.08884 10.7431C4.93309 11.0136 4.93309 11.0136 4.68389 11.1202C4.43469 11.1448 4.43469 11.1448 4.18549 11.0136C4.18549 11.1002 4.18549 11.1867 4.18549 11.2759C3.50163 11.3209 2.91659 11.2568 2.3165 10.8824C2.02057 10.4726 2.02057 10.4726 1.8181 10.0955C1.73587 10.0522 1.65363 10.0089 1.5689 9.96433C1.39519 9.32711 1.22791 8.61135 1.39758 7.96057C1.77318 7.25475 2.22253 6.81936 2.9395 6.55419C2.98061 6.51091 3.02173 6.46763 3.0641 6.42303Z" fill="#FDFDFD"/>
</svg>
