<svg width="81" height="56" viewBox="0 0 81 56" fill="none" xmlns="http://www.w3.org/2000/svg">
<path d="M41.963 20.7313C41.963 20.935 41.9017 21.1341 41.7869 21.3034C41.672 21.4728 41.5087 21.6048 41.3177 21.6827C41.1267 21.7607 40.9165 21.781 40.7137 21.7413C40.511 21.7016 40.3247 21.6035 40.1785 21.4595C40.0323 21.3155 39.9327 21.132 39.8924 20.9322C39.8521 20.7324 39.8728 20.5254 39.9519 20.3372C40.031 20.149 40.165 19.9882 40.3369 19.8751C40.5088 19.7619 40.7109 19.7015 40.9177 19.7015C41.1949 19.7015 41.4608 19.81 41.6569 20.0031C41.8529 20.1963 41.963 20.4582 41.963 20.7313ZM46.7717 19.7015C46.565 19.7015 46.3629 19.7619 46.1909 19.8751C46.019 19.9882 45.885 20.149 45.8059 20.3372C45.7268 20.5254 45.7061 20.7324 45.7464 20.9322C45.7868 21.132 45.8863 21.3155 46.0325 21.4595C46.1787 21.6035 46.365 21.7016 46.5678 21.7413C46.7706 21.781 46.9807 21.7607 47.1718 21.6827C47.3628 21.6048 47.526 21.4728 47.6409 21.3034C47.7558 21.1341 47.8171 20.935 47.8171 20.7313C47.8171 20.4582 47.7069 20.1963 47.5109 20.0031C47.3149 19.81 47.049 19.7015 46.7717 19.7015ZM51.9379 28.1458C52.0134 28.395 52.0191 28.6596 51.9544 28.9117C51.8897 29.1637 51.757 29.3939 51.5704 29.5777C51.3838 29.7616 51.1502 29.8923 50.8943 29.956C50.6384 30.0198 50.3698 30.0141 50.1169 29.9397L47.4554 29.1684C46.4525 29.6562 45.3584 29.9355 44.2413 29.989C43.1241 30.0424 42.0077 29.8689 40.9615 29.4791C39.9154 29.0894 38.9618 28.4918 38.1601 27.7235C37.3583 26.9552 36.7257 26.0327 36.3014 25.0132C35.3402 24.916 34.4047 24.6492 33.5395 24.2254L30.8822 24.9967C30.6293 25.0711 30.3607 25.0767 30.1048 25.013C29.8489 24.9493 29.6153 24.8186 29.4287 24.6347C29.242 24.4509 29.1093 24.2207 29.0446 23.9686C28.98 23.7166 28.9857 23.452 29.0612 23.2028L29.8441 20.581C29.3608 19.6141 29.08 18.5614 29.0183 17.4854C28.9566 16.4094 29.1153 15.3322 29.485 14.318C29.8547 13.3037 30.4278 12.373 31.1702 11.5815C31.9126 10.7899 32.8091 10.1536 33.8063 9.71049C34.8035 9.26735 35.8811 9.02642 36.9748 9.00205C38.0685 8.97769 39.156 9.17037 40.1725 9.56865C41.189 9.96692 42.1138 10.5626 42.8918 11.3203C43.6697 12.078 44.285 12.9821 44.7009 13.9789C46.008 14.1147 47.2625 14.5597 48.3574 15.2761C49.4524 15.9925 50.3552 16.959 50.9891 18.0934C51.623 19.2277 51.9692 20.4962 51.998 21.7907C52.0269 23.0852 51.7376 24.3674 51.1549 25.5281L51.9379 28.1458ZM35.8853 23.7043C35.63 22.5742 35.626 21.403 35.8736 20.2711C36.1212 19.1393 36.6145 18.0737 37.3196 17.1474C38.0247 16.2211 38.925 15.4561 39.9586 14.9049C40.9921 14.3537 42.1346 14.0294 43.3074 13.9542C42.8891 13.1624 42.3166 12.4595 41.6225 11.8857C40.9285 11.3119 40.1265 10.8783 39.2624 10.6098C38.3983 10.3413 37.4889 10.243 36.5863 10.3207C35.6836 10.3984 34.8053 10.6505 34.0016 11.0625C33.1978 11.4746 32.4843 12.0386 31.9018 12.7223C31.3192 13.406 30.8791 14.196 30.6066 15.0473C30.334 15.8985 30.2343 16.7944 30.3131 17.6836C30.392 18.5728 30.6479 19.438 31.0662 20.2298C31.1436 20.3731 31.1612 20.5404 31.1153 20.6963L30.2612 23.555C30.2505 23.5905 30.2497 23.6282 30.2589 23.6641C30.2681 23.7001 30.2869 23.7329 30.3135 23.7591C30.34 23.7854 30.3733 23.8041 30.4097 23.8133C30.4461 23.8225 30.4844 23.8219 30.5205 23.8114L33.4235 22.9701C33.5817 22.9249 33.7516 22.9423 33.897 23.0185C34.5197 23.3472 35.1905 23.5786 35.8853 23.7043ZM49.9298 25.1728C50.7099 23.7355 50.9398 22.0699 50.5775 20.4796C50.2152 18.8893 49.2848 17.4801 47.956 16.5091C46.6271 15.5381 44.9883 15.0698 43.3383 15.1897C41.6883 15.3095 40.1369 16.0095 38.967 17.162C37.797 18.3145 37.0865 19.8427 36.9648 21.4682C36.8432 23.0937 37.3185 24.7081 38.3043 26.0171C39.29 27.3262 40.7204 28.2427 42.3347 28.5996C43.9491 28.9565 45.6399 28.7301 47.0989 27.9615C47.2444 27.8853 47.4142 27.868 47.5725 27.9131L50.4754 28.7544C50.5114 28.7648 50.5496 28.7654 50.5859 28.7562C50.6222 28.7471 50.6553 28.7285 50.6818 28.7024C50.7083 28.6763 50.7272 28.6436 50.7365 28.6078C50.7458 28.5721 50.7452 28.5345 50.7347 28.4991L49.8806 25.6393C49.8347 25.4834 49.8523 25.3161 49.9298 25.1728Z" fill="#2F1A1B" fill-opacity="0.3"/>
<path d="M30.2187 46V38.586H31.2527V46H30.2187ZM27.6227 39.312V38.366H33.8377V39.312H27.6227ZM35.9205 46.11C35.4952 46.11 35.1102 46.0147 34.7655 45.824C34.4282 45.626 34.1642 45.3547 33.9735 45.01C33.7828 44.6653 33.6875 44.2657 33.6875 43.811V40.775H34.6775V43.767C34.6775 44.053 34.7252 44.3023 34.8205 44.515C34.9232 44.7203 35.0698 44.878 35.2605 44.988C35.4512 45.098 35.6748 45.153 35.9315 45.153C36.3202 45.153 36.6245 45.032 36.8445 44.79C37.0645 44.5407 37.1745 44.1997 37.1745 43.767V40.775H38.1645V43.811C38.1645 44.2657 38.0692 44.6653 37.8785 45.01C37.6878 45.3547 37.4238 45.626 37.0865 45.824C36.7565 46.0147 36.3678 46.11 35.9205 46.11ZM40.2944 46V38.586H41.2844V46H40.2944ZM39.0074 41.677V40.775H42.5714V41.677H39.0074ZM45.7671 46.11C45.2537 46.11 44.7917 45.989 44.3811 45.747C43.9704 45.505 43.6441 45.1787 43.4021 44.768C43.1601 44.35 43.0391 43.8843 43.0391 43.371C43.0391 42.865 43.1601 42.4103 43.4021 42.007C43.6441 41.5963 43.9704 41.27 44.3811 41.028C44.7917 40.786 45.2537 40.665 45.7671 40.665C46.2731 40.665 46.7314 40.786 47.1421 41.028C47.5601 41.2627 47.8901 41.5853 48.1321 41.996C48.3741 42.4067 48.4951 42.865 48.4951 43.371C48.4951 43.8843 48.3741 44.35 48.1321 44.768C47.8901 45.1787 47.5601 45.505 47.1421 45.747C46.7314 45.989 46.2731 46.11 45.7671 46.11ZM45.7671 45.153C46.0971 45.153 46.3904 45.076 46.6471 44.922C46.9037 44.768 47.1054 44.559 47.2521 44.295C47.3987 44.0237 47.4721 43.7157 47.4721 43.371C47.4721 43.0337 47.3951 42.733 47.2411 42.469C47.0944 42.205 46.8927 41.9997 46.6361 41.853C46.3867 41.699 46.0971 41.622 45.7671 41.622C45.4371 41.622 45.1437 41.699 44.8871 41.853C44.6304 41.9997 44.4287 42.205 44.2821 42.469C44.1354 42.733 44.0621 43.0337 44.0621 43.371C44.0621 43.7157 44.1354 44.0237 44.2821 44.295C44.4287 44.559 44.6304 44.768 44.8871 44.922C45.1437 45.076 45.4371 45.153 45.7671 45.153ZM49.6105 46V40.775H50.6005V46H49.6105ZM50.6005 43.019L50.2265 42.854C50.2265 42.1867 50.3805 41.655 50.6885 41.259C50.9965 40.863 51.4402 40.665 52.0195 40.665C52.2835 40.665 52.5219 40.7127 52.7345 40.808C52.9472 40.896 53.1452 41.0463 53.3285 41.259L52.6795 41.93C52.5695 41.8127 52.4485 41.7283 52.3165 41.677C52.1845 41.6257 52.0305 41.6 51.8545 41.6C51.4879 41.6 51.1872 41.7173 50.9525 41.952C50.7179 42.1867 50.6005 42.5423 50.6005 43.019Z" fill="#2F1A1B" fill-opacity="0.3"/>
</svg>
